<?xml version="1.0" encoding="UTF-8"?><svg xmlns="http://www.w3.org/2000/svg" xmlns:xlink="http://www.w3.org/1999/xlink" contentScriptType="text/ecmascript" width="375" zoomAndPan="magnify" contentStyleType="text/css" viewBox="0 0 375 374.999991" height="374.999991" preserveAspectRatio="xMidYMid meet" version="1.0"><rect x="-37.5" width="450" fill="rgb(100%, 100%, 100%)" y="-37.499999" height="449.999989" fill-opacity="1"/><rect x="-37.5" width="450" fill="rgb(100%, 100%, 100%)" y="-37.499999" height="449.999989" fill-opacity="1"/><rect x="-37.5" width="450" fill="rgb(100%, 100%, 100%)" y="-37.499999" height="449.999989" fill-opacity="1"/><path fill="rgb(78.42865%, 0%, 0%)" d="M 169.746094 310.371094 C 169.746094 310.371094 95.878906 249.828125 95.878906 196.023438 C 95.878906 142.21875 158.734375 135.296875 158.734375 135.296875 L 169.746094 143.464844 Z M 169.746094 310.371094 " fill-opacity="1" fill-rule="nonzero"/><path fill="rgb(78.42865%, 0%, 0%)" d="M 259.941406 131.574219 C 259.941406 131.574219 226.917969 144.359375 226.917969 159.273438 L 226.917969 292.441406 C 226.917969 292.441406 292.96875 233.316406 300.425781 212.011719 C 307.882812 190.703125 315.878906 144.359375 259.941406 131.574219 Z M 259.941406 131.574219 " fill-opacity="1" fill-rule="nonzero"/><path fill="rgb(95.689392%, 70.199585%, 14.118958%)" d="M 241.472656 10.652344 C 236.046875 32.339844 233.679688 54.359375 234.375 76.703125 L 234.375 129.265625 C 234.375 129.265625 306.816406 122.652344 306.816406 188.070312 C 306.816406 221.972656 234.375 289.492188 234.375 289.492188 L 234.375 363.800781 L 258.519531 363.800781 C 258.519531 363.800781 266.335938 342.316406 285.511719 342.316406 C 304.6875 342.316406 315.339844 363.816406 315.339844 363.816406 L 366.476562 363.816406 L 366.476562 10.652344 L 309.65625 10.652344 C 309.65625 10.652344 301.847656 30.535156 285.511719 30.535156 C 269.171875 30.535156 255.683594 10.652344 255.683594 10.652344 Z M 241.472656 10.652344 " fill-opacity="1" fill-rule="nonzero"/><path fill="rgb(95.689392%, 70.199585%, 14.118958%)" d="M 51.136719 8.523438 C 51.136719 8.523438 38.351562 24.859375 38.351562 59.660156 L 38.351562 363.816406 C 39.210938 364.40625 40.105469 364.925781 41.042969 365.378906 C 41.980469 365.832031 42.945312 366.210938 43.9375 366.519531 C 44.929688 366.828125 45.941406 367.058594 46.96875 367.214844 C 47.996094 367.371094 49.03125 367.445312 50.070312 367.445312 C 51.109375 367.445312 52.144531 367.371094 53.171875 367.214844 C 54.199219 367.058594 55.210938 366.828125 56.203125 366.519531 C 57.199219 366.210938 58.164062 365.832031 59.097656 365.378906 C 60.035156 364.925781 60.933594 364.40625 61.789062 363.816406 C 69.964844 357 73.269531 338.785156 89.488281 338.785156 C 89.488281 338.785156 115.765625 352.636719 115.765625 363.828125 L 169.738281 363.828125 L 169.738281 310.371094 C 169.738281 310.371094 67.464844 235.089844 67.464844 178.976562 C 67.464844 122.863281 143.464844 114.347656 169.738281 143.464844 L 169.738281 12.078125 L 115.058594 10.652344 C 114.9375 11.410156 114.785156 12.160156 114.601562 12.902344 C 114.417969 13.644531 114.203125 14.375 113.953125 15.101562 C 113.703125 15.824219 113.421875 16.535156 113.109375 17.234375 C 112.800781 17.933594 112.457031 18.617188 112.085938 19.285156 C 111.714844 19.953125 111.3125 20.605469 110.882812 21.238281 C 110.453125 21.871094 110 22.484375 109.515625 23.078125 C 109.03125 23.671875 108.523438 24.242188 107.988281 24.789062 C 107.457031 25.335938 106.898438 25.859375 106.320312 26.359375 C 105.738281 26.859375 105.140625 27.332031 104.515625 27.777344 C 103.894531 28.226562 103.257812 28.644531 102.597656 29.03125 C 101.9375 29.421875 101.265625 29.78125 100.574219 30.113281 C 99.886719 30.445312 99.183594 30.742188 98.464844 31.011719 C 97.75 31.28125 97.023438 31.515625 96.285156 31.722656 C 95.546875 31.925781 94.800781 32.097656 94.050781 32.234375 C 93.296875 32.375 92.539062 32.480469 91.777344 32.550781 C 91.015625 32.625 90.253906 32.664062 89.488281 32.667969 C 87.921875 32.636719 86.367188 32.476562 84.828125 32.183594 C 83.289062 31.894531 81.78125 31.480469 80.3125 30.9375 C 78.839844 30.398438 77.425781 29.738281 76.0625 28.964844 C 74.699219 28.1875 73.414062 27.304688 72.199219 26.3125 C 70.984375 25.324219 69.859375 24.238281 68.824219 23.0625 C 67.792969 21.882812 66.863281 20.628906 66.035156 19.296875 C 65.210938 17.964844 64.5 16.570312 63.90625 15.121094 C 63.3125 13.671875 62.84375 12.183594 62.496094 10.652344 Z M 51.136719 8.523438 " fill-opacity="1" fill-rule="nonzero"/><path fill="rgb(10.978699%, 9.799194%, 10.198975%)" d="M 42.613281 85.226562 C 43.171875 85.226562 43.726562 85.171875 44.277344 85.0625 C 44.824219 84.953125 45.359375 84.792969 45.875 84.578125 C 46.390625 84.363281 46.882812 84.101562 47.347656 83.789062 C 47.8125 83.480469 48.246094 83.125 48.640625 82.730469 C 49.035156 82.335938 49.390625 81.90625 49.699219 81.441406 C 50.011719 80.972656 50.273438 80.484375 50.488281 79.964844 C 50.703125 79.449219 50.863281 78.917969 50.972656 78.367188 C 51.082031 77.820312 51.136719 77.265625 51.136719 76.703125 C 51.136719 76.144531 51.082031 75.589844 50.972656 75.042969 C 50.863281 74.492188 50.703125 73.960938 50.488281 73.441406 C 50.273438 72.925781 50.011719 72.433594 49.699219 71.96875 C 49.390625 71.503906 49.035156 71.074219 48.640625 70.679688 C 48.246094 70.28125 47.8125 69.929688 47.347656 69.617188 C 46.882812 69.308594 46.390625 69.042969 45.875 68.832031 C 45.359375 68.617188 44.824219 68.453125 44.277344 68.34375 C 43.726562 68.238281 43.171875 68.183594 42.613281 68.183594 L 34.089844 68.183594 C 33.53125 68.183594 32.976562 68.238281 32.429688 68.34375 C 31.878906 68.453125 31.347656 68.617188 30.828125 68.832031 C 30.3125 69.042969 29.820312 69.308594 29.355469 69.617188 C 28.890625 69.929688 28.460938 70.28125 28.0625 70.679688 C 27.667969 71.074219 27.316406 71.503906 27.003906 71.96875 C 26.695312 72.433594 26.429688 72.925781 26.21875 73.441406 C 26.003906 73.960938 25.839844 74.492188 25.730469 75.042969 C 25.621094 75.589844 25.566406 76.144531 25.566406 76.703125 C 25.566406 77.265625 25.621094 77.820312 25.730469 78.367188 C 25.839844 78.917969 26.003906 79.449219 26.21875 79.964844 C 26.429688 80.484375 26.695312 80.972656 27.003906 81.441406 C 27.316406 81.90625 27.667969 82.335938 28.0625 82.730469 C 28.460938 83.125 28.890625 83.480469 29.355469 83.789062 C 29.820312 84.101562 30.3125 84.363281 30.828125 84.578125 C 31.347656 84.792969 31.878906 84.953125 32.429688 85.0625 C 32.976562 85.171875 33.53125 85.226562 34.089844 85.226562 Z M 42.613281 85.226562 " fill-opacity="1" fill-rule="nonzero"/><path fill="rgb(10.978699%, 9.799194%, 10.198975%)" d="M 68.183594 85.226562 L 76.703125 85.226562 C 77.265625 85.226562 77.820312 85.171875 78.367188 85.0625 C 78.917969 84.953125 79.449219 84.792969 79.964844 84.578125 C 80.484375 84.363281 80.972656 84.101562 81.441406 83.789062 C 81.90625 83.480469 82.335938 83.125 82.730469 82.730469 C 83.125 82.335938 83.480469 81.90625 83.789062 81.441406 C 84.101562 80.972656 84.363281 80.484375 84.578125 79.964844 C 84.792969 79.449219 84.953125 78.917969 85.0625 78.367188 C 85.171875 77.820312 85.226562 77.265625 85.226562 76.703125 C 85.226562 76.144531 85.171875 75.589844 85.0625 75.042969 C 84.953125 74.492188 84.792969 73.960938 84.578125 73.441406 C 84.363281 72.925781 84.101562 72.433594 83.789062 71.96875 C 83.480469 71.503906 83.125 71.074219 82.730469 70.679688 C 82.335938 70.28125 81.90625 69.929688 81.441406 69.617188 C 80.972656 69.308594 80.484375 69.042969 79.964844 68.832031 C 79.449219 68.617188 78.917969 68.453125 78.367188 68.34375 C 77.820312 68.238281 77.265625 68.183594 76.703125 68.183594 L 68.183594 68.183594 C 67.621094 68.183594 67.066406 68.238281 66.519531 68.34375 C 65.96875 68.453125 65.4375 68.617188 64.921875 68.832031 C 64.402344 69.042969 63.914062 69.308594 63.445312 69.617188 C 62.980469 69.929688 62.550781 70.28125 62.15625 70.679688 C 61.757812 71.074219 61.40625 71.503906 61.09375 71.96875 C 60.785156 72.433594 60.523438 72.925781 60.308594 73.441406 C 60.09375 73.960938 59.933594 74.492188 59.824219 75.042969 C 59.714844 75.589844 59.660156 76.144531 59.660156 76.703125 C 59.660156 77.265625 59.714844 77.820312 59.824219 78.367188 C 59.933594 78.917969 60.09375 79.449219 60.308594 79.964844 C 60.523438 80.484375 60.785156 80.972656 61.09375 81.441406 C 61.40625 81.90625 61.757812 82.335938 62.15625 82.730469 C 62.550781 83.125 62.980469 83.480469 63.445312 83.789062 C 63.914062 84.101562 64.402344 84.363281 64.921875 84.578125 C 65.4375 84.792969 65.96875 84.953125 66.519531 85.0625 C 67.066406 85.171875 67.621094 85.226562 68.183594 85.226562 Z M 68.183594 85.226562 " fill-opacity="1" fill-rule="nonzero"/><path fill="rgb(10.978699%, 9.799194%, 10.198975%)" d="M 110.796875 85.226562 C 111.355469 85.226562 111.910156 85.171875 112.457031 85.0625 C 113.007812 84.953125 113.539062 84.792969 114.058594 84.578125 C 114.574219 84.363281 115.066406 84.101562 115.53125 83.789062 C 115.996094 83.480469 116.425781 83.125 116.820312 82.730469 C 117.21875 82.335938 117.570312 81.90625 117.882812 81.441406 C 118.191406 80.972656 118.457031 80.484375 118.667969 79.964844 C 118.882812 79.449219 119.046875 78.917969 119.15625 78.367188 C 119.261719 77.820312 119.316406 77.265625 119.316406 76.703125 C 119.316406 76.144531 119.261719 75.589844 119.15625 75.042969 C 119.046875 74.492188 118.882812 73.960938 118.667969 73.441406 C 118.457031 72.925781 118.191406 72.433594 117.882812 71.96875 C 117.570312 71.503906 117.21875 71.074219 116.820312 70.679688 C 116.425781 70.28125 115.996094 69.929688 115.53125 69.617188 C 115.066406 69.308594 114.574219 69.042969 114.058594 68.832031 C 113.539062 68.617188 113.007812 68.453125 112.457031 68.34375 C 111.910156 68.238281 111.355469 68.183594 110.796875 68.183594 L 102.273438 68.183594 C 101.714844 68.183594 101.160156 68.238281 100.609375 68.34375 C 100.0625 68.453125 99.527344 68.617188 99.011719 68.832031 C 98.496094 69.042969 98.003906 69.308594 97.539062 69.617188 C 97.074219 69.929688 96.640625 70.28125 96.246094 70.679688 C 95.851562 71.074219 95.496094 71.503906 95.1875 71.96875 C 94.875 72.433594 94.613281 72.925781 94.398438 73.441406 C 94.183594 73.960938 94.023438 74.492188 93.914062 75.042969 C 93.804688 75.589844 93.75 76.144531 93.75 76.703125 C 93.75 77.265625 93.804688 77.820312 93.914062 78.367188 C 94.023438 78.917969 94.183594 79.449219 94.398438 79.964844 C 94.613281 80.484375 94.875 80.972656 95.1875 81.441406 C 95.496094 81.90625 95.851562 82.335938 96.246094 82.730469 C 96.640625 83.125 97.074219 83.480469 97.539062 83.789062 C 98.003906 84.101562 98.496094 84.363281 99.011719 84.578125 C 99.527344 84.792969 100.0625 84.953125 100.609375 85.0625 C 101.160156 85.171875 101.714844 85.226562 102.273438 85.226562 Z M 110.796875 85.226562 " fill-opacity="1" fill-rule="nonzero"/><path fill="rgb(10.978699%, 9.799194%, 10.198975%)" d="M 136.363281 85.226562 L 144.886719 85.226562 C 145.445312 85.226562 146 85.171875 146.550781 85.0625 C 147.097656 84.953125 147.628906 84.792969 148.148438 84.578125 C 148.664062 84.363281 149.15625 84.101562 149.621094 83.789062 C 150.085938 83.480469 150.515625 83.125 150.914062 82.730469 C 151.308594 82.335938 151.660156 81.90625 151.972656 81.441406 C 152.285156 80.972656 152.546875 80.484375 152.761719 79.964844 C 152.972656 79.449219 153.136719 78.917969 153.246094 78.367188 C 153.355469 77.820312 153.410156 77.265625 153.410156 76.703125 C 153.410156 76.144531 153.355469 75.589844 153.246094 75.042969 C 153.136719 74.492188 152.972656 73.960938 152.761719 73.441406 C 152.546875 72.925781 152.285156 72.433594 151.972656 71.96875 C 151.660156 71.503906 151.308594 71.074219 150.914062 70.679688 C 150.515625 70.28125 150.085938 69.929688 149.621094 69.617188 C 149.15625 69.308594 148.664062 69.042969 148.148438 68.832031 C 147.628906 68.617188 147.097656 68.453125 146.550781 68.34375 C 146 68.238281 145.445312 68.183594 144.886719 68.183594 L 136.363281 68.183594 C 135.804688 68.183594 135.25 68.238281 134.699219 68.34375 C 134.152344 68.453125 133.617188 68.617188 133.101562 68.832031 C 132.585938 69.042969 132.09375 69.308594 131.628906 69.617188 C 131.164062 69.929688 130.734375 70.28125 130.335938 70.679688 C 129.941406 71.074219 129.589844 71.503906 129.277344 71.96875 C 128.964844 72.433594 128.703125 72.925781 128.488281 73.441406 C 128.277344 73.960938 128.113281 74.492188 128.003906 75.042969 C 127.894531 75.589844 127.839844 76.144531 127.839844 76.703125 C 127.839844 77.265625 127.894531 77.820312 128.003906 78.367188 C 128.113281 78.917969 128.277344 79.449219 128.488281 79.964844 C 128.703125 80.484375 128.964844 80.972656 129.277344 81.441406 C 129.589844 81.90625 129.941406 82.335938 130.335938 82.730469 C 130.734375 83.125 131.164062 83.480469 131.628906 83.789062 C 132.09375 84.101562 132.585938 84.363281 133.101562 84.578125 C 133.617188 84.792969 134.152344 84.953125 134.699219 85.0625 C 135.25 85.171875 135.804688 85.226562 136.363281 85.226562 Z M 136.363281 85.226562 " fill-opacity="1" fill-rule="nonzero"/><path fill="rgb(10.978699%, 9.799194%, 10.198975%)" d="M 17.046875 187.5 C 17.046875 188.058594 16.992188 188.613281 16.882812 189.164062 C 16.773438 189.710938 16.609375 190.246094 16.398438 190.761719 C 16.183594 191.277344 15.921875 191.769531 15.609375 192.234375 C 15.296875 192.699219 14.945312 193.128906 14.550781 193.527344 C 14.152344 193.921875 13.722656 194.277344 13.257812 194.585938 C 12.792969 194.898438 12.300781 195.160156 11.785156 195.375 C 11.265625 195.589844 10.734375 195.75 10.183594 195.859375 C 9.636719 195.96875 9.082031 196.023438 8.523438 196.023438 C 7.964844 196.023438 7.410156 195.96875 6.859375 195.859375 C 6.3125 195.75 5.777344 195.589844 5.261719 195.375 C 4.746094 195.160156 4.253906 194.898438 3.789062 194.585938 C 3.324219 194.277344 2.890625 193.921875 2.496094 193.527344 C 2.101562 193.128906 1.746094 192.699219 1.4375 192.234375 C 1.125 191.769531 0.863281 191.277344 0.648438 190.761719 C 0.433594 190.246094 0.273438 189.710938 0.164062 189.164062 C 0.0546875 188.613281 0 188.058594 0 187.5 C 0 186.941406 0.0546875 186.386719 0.164062 185.835938 C 0.273438 185.289062 0.433594 184.753906 0.648438 184.238281 C 0.863281 183.722656 1.125 183.230469 1.4375 182.765625 C 1.746094 182.300781 2.101562 181.871094 2.496094 181.472656 C 2.890625 181.078125 3.324219 180.722656 3.789062 180.414062 C 4.253906 180.101562 4.746094 179.839844 5.261719 179.625 C 5.777344 179.410156 6.3125 179.25 6.859375 179.140625 C 7.410156 179.03125 7.964844 178.976562 8.523438 178.976562 C 9.082031 178.976562 9.636719 179.03125 10.183594 179.140625 C 10.734375 179.25 11.265625 179.410156 11.785156 179.625 C 12.300781 179.839844 12.792969 180.101562 13.257812 180.414062 C 13.722656 180.722656 14.152344 181.078125 14.550781 181.472656 C 14.945312 181.871094 15.296875 182.300781 15.609375 182.765625 C 15.921875 183.230469 16.183594 183.722656 16.398438 184.238281 C 16.609375 184.753906 16.773438 185.289062 16.882812 185.835938 C 16.992188 186.386719 17.046875 186.941406 17.046875 187.5 Z M 17.046875 187.5 " fill-opacity="1" fill-rule="nonzero"/><path fill="rgb(10.978699%, 9.799194%, 10.198975%)" d="M 170.453125 0 L 115.058594 0 C 114.496094 0 113.941406 0.0546875 113.394531 0.164062 C 112.84375 0.273438 112.3125 0.433594 111.796875 0.648438 C 111.277344 0.863281 110.789062 1.125 110.320312 1.4375 C 109.855469 1.746094 109.425781 2.101562 109.03125 2.496094 C 108.632812 2.890625 108.28125 3.324219 107.96875 3.789062 C 107.660156 4.253906 107.398438 4.746094 107.183594 5.261719 C 106.96875 5.777344 106.808594 6.3125 106.699219 6.859375 C 106.589844 7.410156 106.535156 7.964844 106.535156 8.523438 C 106.535156 9.082031 106.507812 9.636719 106.453125 10.195312 C 106.398438 10.75 106.316406 11.300781 106.207031 11.847656 C 106.097656 12.394531 105.960938 12.9375 105.800781 13.472656 C 105.636719 14.003906 105.449219 14.53125 105.238281 15.046875 C 105.023438 15.5625 104.785156 16.066406 104.519531 16.558594 C 104.257812 17.050781 103.972656 17.527344 103.660156 17.992188 C 103.351562 18.457031 103.019531 18.90625 102.664062 19.335938 C 102.3125 19.769531 101.9375 20.179688 101.542969 20.574219 C 101.148438 20.96875 100.734375 21.34375 100.300781 21.699219 C 99.871094 22.054688 99.421875 22.386719 98.957031 22.695312 C 98.496094 23.003906 98.015625 23.292969 97.523438 23.554688 C 97.03125 23.820312 96.527344 24.058594 96.011719 24.269531 C 95.496094 24.484375 94.972656 24.671875 94.4375 24.835938 C 93.902344 24.996094 93.363281 25.132812 92.8125 25.242188 C 92.265625 25.347656 91.714844 25.429688 91.160156 25.484375 C 90.605469 25.539062 90.046875 25.566406 89.488281 25.566406 C 88.929688 25.566406 88.375 25.539062 87.816406 25.484375 C 87.261719 25.429688 86.710938 25.347656 86.164062 25.242188 C 85.617188 25.132812 85.074219 24.996094 84.539062 24.835938 C 84.007812 24.671875 83.480469 24.484375 82.964844 24.269531 C 82.449219 24.058594 81.945312 23.820312 81.453125 23.554688 C 80.960938 23.292969 80.484375 23.003906 80.019531 22.695312 C 79.554688 22.386719 79.105469 22.054688 78.675781 21.699219 C 78.242188 21.34375 77.832031 20.96875 77.4375 20.574219 C 77.039062 20.179688 76.667969 19.769531 76.3125 19.335938 C 75.957031 18.90625 75.625 18.457031 75.316406 17.992188 C 75.003906 17.527344 74.71875 17.050781 74.457031 16.558594 C 74.191406 16.066406 73.953125 15.5625 73.742188 15.046875 C 73.527344 14.53125 73.339844 14.003906 73.175781 13.472656 C 73.015625 12.9375 72.878906 12.394531 72.769531 11.847656 C 72.660156 11.300781 72.578125 10.75 72.523438 10.195312 C 72.46875 9.636719 72.441406 9.082031 72.441406 8.523438 C 72.441406 7.964844 72.386719 7.410156 72.28125 6.859375 C 72.171875 6.3125 72.007812 5.777344 71.792969 5.261719 C 71.582031 4.746094 71.316406 4.253906 71.007812 3.789062 C 70.695312 3.324219 70.34375 2.890625 69.945312 2.496094 C 69.550781 2.101562 69.121094 1.746094 68.65625 1.4375 C 68.191406 1.125 67.699219 0.863281 67.183594 0.648438 C 66.664062 0.433594 66.132812 0.273438 65.582031 0.164062 C 65.035156 0.0546875 64.480469 0 63.921875 0 L 8.523438 0 C 7.964844 0 7.410156 0.0546875 6.859375 0.164062 C 6.3125 0.273438 5.777344 0.433594 5.261719 0.648438 C 4.746094 0.863281 4.253906 1.125 3.789062 1.4375 C 3.324219 1.746094 2.890625 2.101562 2.496094 2.496094 C 2.101562 2.890625 1.746094 3.324219 1.4375 3.789062 C 1.125 4.253906 0.863281 4.746094 0.648438 5.261719 C 0.433594 5.777344 0.273438 6.3125 0.164062 6.859375 C 0.0546875 7.410156 0 7.964844 0 8.523438 L 0 161.933594 C 0 162.492188 0.0546875 163.046875 0.164062 163.59375 C 0.273438 164.144531 0.433594 164.675781 0.648438 165.191406 C 0.863281 165.710938 1.125 166.203125 1.4375 166.667969 C 1.746094 167.132812 2.101562 167.5625 2.496094 167.957031 C 2.890625 168.355469 3.324219 168.707031 3.789062 169.019531 C 4.253906 169.328125 4.746094 169.589844 5.261719 169.804688 C 5.777344 170.019531 6.3125 170.179688 6.859375 170.289062 C 7.410156 170.398438 7.964844 170.453125 8.523438 170.453125 C 9.082031 170.453125 9.636719 170.398438 10.183594 170.289062 C 10.734375 170.179688 11.265625 170.019531 11.785156 169.804688 C 12.300781 169.589844 12.792969 169.328125 13.257812 169.019531 C 13.722656 168.707031 14.152344 168.355469 14.550781 167.957031 C 14.945312 167.5625 15.296875 167.132812 15.609375 166.667969 C 15.921875 166.203125 16.183594 165.710938 16.398438 165.191406 C 16.609375 164.675781 16.773438 164.144531 16.882812 163.59375 C 16.992188 163.046875 17.046875 162.492188 17.046875 161.933594 L 17.046875 17.046875 L 56.472656 17.046875 C 56.941406 18.863281 57.554688 20.628906 58.316406 22.347656 C 59.074219 24.0625 59.972656 25.707031 61.003906 27.273438 C 62.035156 28.84375 63.1875 30.316406 64.460938 31.695312 C 65.738281 33.070312 67.117188 34.335938 68.601562 35.484375 C 70.085938 36.636719 71.652344 37.65625 73.304688 38.546875 C 74.957031 39.4375 76.671875 40.1875 78.449219 40.796875 C 80.226562 41.402344 82.039062 41.859375 83.890625 42.167969 C 85.742188 42.476562 87.605469 42.628906 89.484375 42.628906 C 91.363281 42.628906 93.226562 42.476562 95.078125 42.167969 C 96.929688 41.859375 98.742188 41.402344 100.519531 40.796875 C 102.296875 40.1875 104.011719 39.4375 105.664062 38.546875 C 107.316406 37.65625 108.882812 36.636719 110.367188 35.484375 C 111.851562 34.335938 113.230469 33.070312 114.507812 31.695312 C 115.78125 30.316406 116.933594 28.84375 117.964844 27.273438 C 118.996094 25.707031 119.894531 24.0625 120.652344 22.347656 C 121.414062 20.628906 122.027344 18.863281 122.496094 17.046875 L 161.933594 17.046875 L 161.933594 128.335938 C 160.316406 127.410156 158.667969 126.554688 156.984375 125.765625 C 155.300781 124.976562 153.589844 124.253906 151.847656 123.605469 C 150.105469 122.957031 148.339844 122.378906 146.550781 121.875 C 144.757812 121.371094 142.953125 120.9375 141.128906 120.582031 C 139.300781 120.226562 137.464844 119.945312 135.617188 119.738281 C 133.769531 119.53125 131.917969 119.398438 130.058594 119.34375 C 128.199219 119.289062 126.339844 119.308594 124.484375 119.40625 C 122.628906 119.503906 120.777344 119.675781 118.933594 119.925781 C 117.089844 120.171875 115.261719 120.496094 113.445312 120.894531 C 111.628906 121.292969 109.832031 121.761719 108.054688 122.308594 C 106.277344 122.855469 104.523438 123.46875 102.796875 124.160156 C 101.070312 124.847656 99.371094 125.605469 97.707031 126.433594 C 96.042969 127.257812 94.414062 128.152344 92.820312 129.113281 C 91.226562 130.074219 89.679688 131.097656 88.167969 132.183594 C 86.660156 133.273438 85.199219 134.417969 83.785156 135.625 C 82.371094 136.832031 81.007812 138.097656 79.695312 139.414062 C 78.90625 140.210938 78.132812 141.023438 77.382812 141.855469 C 76.632812 142.691406 75.902344 143.542969 75.191406 144.410156 C 74.484375 145.277344 73.796875 146.164062 73.128906 147.066406 C 72.464844 147.96875 71.820312 148.886719 71.199219 149.820312 C 70.578125 150.753906 69.980469 151.703125 69.40625 152.667969 C 68.832031 153.628906 68.28125 154.605469 67.753906 155.59375 C 67.226562 156.585938 66.722656 157.589844 66.246094 158.601562 C 65.769531 159.617188 65.316406 160.644531 64.886719 161.679688 C 64.460938 162.714844 64.058594 163.761719 63.683594 164.820312 C 63.304688 165.875 62.953125 166.941406 62.628906 168.015625 C 62.304688 169.089844 62.007812 170.167969 61.738281 171.257812 C 61.464844 172.34375 61.21875 173.4375 61.003906 174.539062 C 60.785156 175.640625 60.59375 176.746094 60.429688 177.855469 C 60.265625 178.964844 60.128906 180.074219 60.019531 181.191406 C 59.910156 182.308594 59.828125 183.425781 59.773438 184.546875 C 59.71875 185.667969 59.691406 186.789062 59.691406 187.910156 C 59.691406 189.03125 59.71875 190.152344 59.773438 191.273438 C 59.828125 192.390625 59.910156 193.511719 60.019531 194.625 C 60.128906 195.742188 60.265625 196.855469 60.429688 197.964844 C 60.59375 199.074219 60.785156 200.179688 61.003906 201.277344 C 61.21875 202.378906 61.464844 203.472656 61.738281 204.5625 C 62.007812 205.648438 62.304688 206.730469 62.628906 207.804688 C 62.953125 208.878906 63.304688 209.941406 63.683594 211 C 64.058594 212.054688 64.460938 213.101562 64.886719 214.136719 C 65.316406 215.175781 65.769531 216.199219 66.246094 217.214844 C 66.722656 218.230469 67.226562 219.234375 67.753906 220.222656 C 68.28125 221.210938 68.832031 222.1875 69.40625 223.152344 C 69.980469 224.113281 70.578125 225.0625 71.199219 225.996094 C 71.820312 226.929688 72.464844 227.847656 73.128906 228.75 C 73.796875 229.652344 74.484375 230.539062 75.191406 231.410156 C 75.902344 232.277344 76.632812 233.128906 77.382812 233.960938 C 78.132812 234.792969 78.90625 235.609375 79.695312 236.402344 L 161.933594 318.859375 L 161.933594 357.953125 L 122.503906 357.953125 C 122.039062 356.136719 121.421875 354.371094 120.664062 352.652344 C 119.902344 350.9375 119.007812 349.292969 117.976562 347.726562 C 116.941406 346.15625 115.789062 344.683594 114.515625 343.304688 C 113.238281 341.929688 111.859375 340.664062 110.375 339.515625 C 108.890625 338.363281 107.324219 337.34375 105.671875 336.453125 C 104.019531 335.5625 102.304688 334.8125 100.527344 334.203125 C 98.753906 333.597656 96.9375 333.140625 95.085938 332.832031 C 93.234375 332.523438 91.371094 332.371094 89.492188 332.371094 C 87.617188 332.371094 85.75 332.523438 83.898438 332.832031 C 82.046875 333.140625 80.234375 333.597656 78.457031 334.203125 C 76.679688 334.8125 74.964844 335.5625 73.3125 336.453125 C 71.660156 337.34375 70.09375 338.363281 68.609375 339.515625 C 67.125 340.664062 65.746094 341.929688 64.472656 343.304688 C 63.195312 344.683594 62.042969 346.15625 61.011719 347.726562 C 59.980469 349.292969 59.082031 350.9375 58.324219 352.652344 C 57.5625 354.371094 56.949219 356.136719 56.480469 357.953125 L 17.046875 357.953125 L 17.046875 213.066406 C 17.046875 212.507812 16.992188 211.953125 16.882812 211.40625 C 16.773438 210.855469 16.609375 210.324219 16.398438 209.804688 C 16.183594 209.289062 15.921875 208.796875 15.609375 208.332031 C 15.296875 207.867188 14.945312 207.4375 14.550781 207.042969 C 14.152344 206.644531 13.722656 206.292969 13.257812 205.980469 C 12.792969 205.671875 12.300781 205.410156 11.785156 205.195312 C 11.265625 204.980469 10.734375 204.816406 10.183594 204.710938 C 9.636719 204.601562 9.082031 204.546875 8.523438 204.546875 C 7.964844 204.546875 7.410156 204.601562 6.859375 204.710938 C 6.3125 204.816406 5.777344 204.980469 5.261719 205.195312 C 4.746094 205.410156 4.253906 205.671875 3.789062 205.980469 C 3.324219 206.292969 2.890625 206.644531 2.496094 207.042969 C 2.101562 207.4375 1.746094 207.867188 1.4375 208.332031 C 1.125 208.796875 0.863281 209.289062 0.648438 209.804688 C 0.433594 210.324219 0.273438 210.855469 0.164062 211.40625 C 0.0546875 211.953125 0 212.507812 0 213.066406 L 0 366.476562 C 0 367.035156 0.0546875 367.589844 0.164062 368.140625 C 0.273438 368.6875 0.433594 369.222656 0.648438 369.738281 C 0.863281 370.253906 1.125 370.746094 1.4375 371.210938 C 1.746094 371.675781 2.101562 372.109375 2.496094 372.503906 C 2.890625 372.898438 3.324219 373.253906 3.789062 373.5625 C 4.253906 373.875 4.746094 374.136719 5.261719 374.351562 C 5.777344 374.566406 6.3125 374.726562 6.859375 374.835938 C 7.410156 374.945312 7.964844 375 8.523438 375 L 63.921875 375 C 64.480469 375 65.035156 374.945312 65.582031 374.835938 C 66.132812 374.726562 66.664062 374.566406 67.183594 374.351562 C 67.699219 374.136719 68.191406 373.875 68.65625 373.5625 C 69.121094 373.253906 69.550781 372.898438 69.945312 372.503906 C 70.34375 372.109375 70.695312 371.675781 71.007812 371.210938 C 71.316406 370.746094 71.582031 370.253906 71.792969 369.738281 C 72.007812 369.222656 72.171875 368.6875 72.28125 368.140625 C 72.386719 367.589844 72.441406 367.035156 72.441406 366.476562 C 72.441406 365.917969 72.46875 365.363281 72.523438 364.804688 C 72.578125 364.25 72.660156 363.699219 72.769531 363.152344 C 72.878906 362.605469 73.015625 362.0625 73.175781 361.527344 C 73.339844 360.996094 73.527344 360.46875 73.742188 359.953125 C 73.953125 359.4375 74.191406 358.933594 74.457031 358.441406 C 74.71875 357.949219 75.003906 357.472656 75.316406 357.007812 C 75.625 356.542969 75.957031 356.09375 76.3125 355.664062 C 76.667969 355.230469 77.039062 354.820312 77.4375 354.425781 C 77.832031 354.03125 78.242188 353.65625 78.675781 353.300781 C 79.105469 352.945312 79.554688 352.613281 80.019531 352.304688 C 80.484375 351.996094 80.960938 351.707031 81.453125 351.445312 C 81.945312 351.179688 82.449219 350.941406 82.964844 350.730469 C 83.480469 350.515625 84.007812 350.328125 84.539062 350.164062 C 85.074219 350.003906 85.617188 349.867188 86.164062 349.757812 C 86.710938 349.652344 87.261719 349.570312 87.816406 349.515625 C 88.375 349.460938 88.929688 349.433594 89.488281 349.433594 C 90.046875 349.433594 90.605469 349.460938 91.160156 349.515625 C 91.714844 349.570312 92.265625 349.652344 92.8125 349.757812 C 93.363281 349.867188 93.902344 350.003906 94.4375 350.164062 C 94.972656 350.328125 95.496094 350.515625 96.011719 350.730469 C 96.527344 350.941406 97.03125 351.179688 97.523438 351.445312 C 98.015625 351.707031 98.496094 351.996094 98.957031 352.304688 C 99.421875 352.613281 99.871094 352.945312 100.300781 353.300781 C 100.734375 353.65625 101.148438 354.03125 101.542969 354.425781 C 101.9375 354.820312 102.3125 355.230469 102.664062 355.664062 C 103.019531 356.09375 103.351562 356.542969 103.660156 357.007812 C 103.972656 357.472656 104.257812 357.949219 104.519531 358.441406 C 104.785156 358.933594 105.023438 359.4375 105.238281 359.953125 C 105.449219 360.46875 105.636719 360.996094 105.800781 361.527344 C 105.960938 362.0625 106.097656 362.605469 106.207031 363.152344 C 106.316406 363.699219 106.398438 364.25 106.453125 364.804688 C 106.507812 365.363281 106.535156 365.917969 106.535156 366.476562 C 106.535156 367.035156 106.589844 367.589844 106.699219 368.140625 C 106.808594 368.6875 106.96875 369.222656 107.183594 369.738281 C 107.398438 370.253906 107.660156 370.746094 107.96875 371.210938 C 108.28125 371.675781 108.632812 372.109375 109.03125 372.503906 C 109.425781 372.898438 109.855469 373.253906 110.320312 373.5625 C 110.789062 373.875 111.277344 374.136719 111.796875 374.351562 C 112.3125 374.566406 112.84375 374.726562 113.394531 374.835938 C 113.941406 374.945312 114.496094 375 115.058594 375 L 170.453125 375 C 171.015625 375 171.566406 374.945312 172.117188 374.835938 C 172.667969 374.726562 173.199219 374.566406 173.714844 374.351562 C 174.234375 374.136719 174.722656 373.875 175.191406 373.5625 C 175.65625 373.253906 176.085938 372.898438 176.480469 372.503906 C 176.875 372.109375 177.230469 371.675781 177.539062 371.210938 C 177.851562 370.746094 178.113281 370.253906 178.328125 369.738281 C 178.542969 369.222656 178.703125 368.6875 178.8125 368.140625 C 178.921875 367.589844 178.976562 367.035156 178.976562 366.476562 L 178.976562 8.523438 C 178.976562 7.964844 178.921875 7.410156 178.8125 6.859375 C 178.703125 6.3125 178.542969 5.777344 178.328125 5.261719 C 178.113281 4.746094 177.851562 4.253906 177.539062 3.789062 C 177.230469 3.324219 176.875 2.890625 176.480469 2.496094 C 176.085938 2.101562 175.65625 1.746094 175.191406 1.4375 C 174.722656 1.125 174.234375 0.863281 173.714844 0.648438 C 173.199219 0.433594 172.667969 0.273438 172.117188 0.164062 C 171.566406 0.0546875 171.015625 0 170.453125 0 Z M 91.765625 224.371094 C 90.574219 223.171875 89.445312 221.921875 88.378906 220.613281 C 87.3125 219.308594 86.308594 217.949219 85.375 216.546875 C 84.441406 215.140625 83.578125 213.695312 82.785156 212.203125 C 81.992188 210.714844 81.273438 209.191406 80.628906 207.628906 C 79.988281 206.070312 79.421875 204.480469 78.933594 202.867188 C 78.445312 201.25 78.035156 199.617188 77.707031 197.960938 C 77.378906 196.304688 77.132812 194.636719 76.96875 192.960938 C 76.804688 191.28125 76.722656 189.597656 76.722656 187.910156 C 76.722656 186.222656 76.804688 184.539062 76.96875 182.859375 C 77.132812 181.179688 77.378906 179.511719 77.707031 177.855469 C 78.035156 176.203125 78.445312 174.566406 78.933594 172.949219 C 79.421875 171.335938 79.988281 169.75 80.628906 168.1875 C 81.273438 166.628906 81.992188 165.105469 82.785156 163.613281 C 83.578125 162.125 84.441406 160.675781 85.375 159.273438 C 86.308594 157.867188 87.3125 156.511719 88.378906 155.203125 C 89.445312 153.898438 90.574219 152.644531 91.765625 151.449219 C 92.902344 150.304688 94.089844 149.214844 95.328125 148.179688 C 96.566406 147.148438 97.851562 146.175781 99.183594 145.265625 C 100.515625 144.355469 101.886719 143.507812 103.296875 142.726562 C 104.707031 141.945312 106.152344 141.230469 107.632812 140.585938 C 109.113281 139.941406 110.617188 139.371094 112.152344 138.867188 C 113.683594 138.363281 115.238281 137.9375 116.8125 137.582031 C 118.382812 137.226562 119.972656 136.945312 121.570312 136.742188 C 123.171875 136.535156 124.777344 136.40625 126.390625 136.355469 C 128.003906 136.300781 129.613281 136.324219 131.226562 136.425781 C 132.835938 136.523438 134.4375 136.699219 136.03125 136.949219 C 137.625 137.203125 139.203125 137.527344 140.765625 137.929688 C 142.328125 138.328125 143.867188 138.804688 145.386719 139.347656 C 146.902344 139.894531 148.390625 140.511719 149.851562 141.199219 C 151.3125 141.886719 152.734375 142.640625 154.125 143.464844 C 155.511719 144.285156 156.859375 145.171875 158.164062 146.121094 C 159.464844 147.070312 160.722656 148.078125 161.933594 149.148438 L 161.933594 294.722656 Z M 91.765625 224.371094 " fill-opacity="1" fill-rule="nonzero"/><path fill="rgb(10.978699%, 9.799194%, 10.198975%)" d="M 332.386719 85.226562 L 340.910156 85.226562 C 341.46875 85.226562 342.023438 85.171875 342.570312 85.0625 C 343.121094 84.953125 343.652344 84.792969 344.171875 84.578125 C 344.6875 84.363281 345.179688 84.101562 345.644531 83.789062 C 346.109375 83.480469 346.539062 83.125 346.933594 82.730469 C 347.332031 82.335938 347.683594 81.90625 347.996094 81.441406 C 348.304688 80.972656 348.570312 80.484375 348.78125 79.964844 C 348.996094 79.449219 349.160156 78.917969 349.269531 78.367188 C 349.378906 77.820312 349.433594 77.265625 349.433594 76.703125 C 349.433594 76.144531 349.378906 75.589844 349.269531 75.042969 C 349.160156 74.492188 348.996094 73.960938 348.78125 73.441406 C 348.570312 72.925781 348.304688 72.433594 347.996094 71.96875 C 347.683594 71.503906 347.332031 71.074219 346.933594 70.679688 C 346.539062 70.28125 346.109375 69.929688 345.644531 69.617188 C 345.179688 69.308594 344.6875 69.042969 344.171875 68.832031 C 343.652344 68.617188 343.121094 68.453125 342.570312 68.34375 C 342.023438 68.238281 341.46875 68.183594 340.910156 68.183594 L 332.386719 68.183594 C 331.828125 68.183594 331.273438 68.238281 330.722656 68.34375 C 330.175781 68.453125 329.640625 68.617188 329.125 68.832031 C 328.609375 69.042969 328.117188 69.308594 327.652344 69.617188 C 327.1875 69.929688 326.753906 70.28125 326.359375 70.679688 C 325.964844 71.074219 325.609375 71.503906 325.300781 71.96875 C 324.988281 72.433594 324.726562 72.925781 324.511719 73.441406 C 324.296875 73.960938 324.136719 74.492188 324.027344 75.042969 C 323.917969 75.589844 323.863281 76.144531 323.863281 76.703125 C 323.863281 77.265625 323.917969 77.820312 324.027344 78.367188 C 324.136719 78.917969 324.296875 79.449219 324.511719 79.964844 C 324.726562 80.484375 324.988281 80.972656 325.300781 81.441406 C 325.609375 81.90625 325.964844 82.335938 326.359375 82.730469 C 326.753906 83.125 327.1875 83.480469 327.652344 83.789062 C 328.117188 84.101562 328.609375 84.363281 329.125 84.578125 C 329.640625 84.792969 330.175781 84.953125 330.722656 85.0625 C 331.273438 85.171875 331.828125 85.226562 332.386719 85.226562 Z M 332.386719 85.226562 " fill-opacity="1" fill-rule="nonzero"/><path fill="rgb(10.978699%, 9.799194%, 10.198975%)" d="M 306.816406 68.183594 L 298.296875 68.183594 C 297.734375 68.183594 297.179688 68.238281 296.632812 68.34375 C 296.082031 68.453125 295.550781 68.617188 295.035156 68.832031 C 294.515625 69.042969 294.027344 69.308594 293.558594 69.617188 C 293.09375 69.929688 292.664062 70.28125 292.269531 70.679688 C 291.875 71.074219 291.519531 71.503906 291.210938 71.96875 C 290.898438 72.433594 290.636719 72.925781 290.421875 73.441406 C 290.207031 73.960938 290.046875 74.492188 289.9375 75.042969 C 289.828125 75.589844 289.773438 76.144531 289.773438 76.703125 C 289.773438 77.265625 289.828125 77.820312 289.9375 78.367188 C 290.046875 78.917969 290.207031 79.449219 290.421875 79.964844 C 290.636719 80.484375 290.898438 80.972656 291.210938 81.441406 C 291.519531 81.90625 291.875 82.335938 292.269531 82.730469 C 292.664062 83.125 293.09375 83.480469 293.558594 83.789062 C 294.027344 84.101562 294.515625 84.363281 295.035156 84.578125 C 295.550781 84.792969 296.082031 84.953125 296.632812 85.0625 C 297.179688 85.171875 297.734375 85.226562 298.296875 85.226562 L 306.816406 85.226562 C 307.378906 85.226562 307.933594 85.171875 308.480469 85.0625 C 309.03125 84.953125 309.5625 84.792969 310.078125 84.578125 C 310.597656 84.363281 311.085938 84.101562 311.554688 83.789062 C 312.019531 83.480469 312.449219 83.125 312.84375 82.730469 C 313.242188 82.335938 313.59375 81.90625 313.90625 81.441406 C 314.214844 80.972656 314.476562 80.484375 314.691406 79.964844 C 314.90625 79.449219 315.066406 78.917969 315.175781 78.367188 C 315.285156 77.820312 315.339844 77.265625 315.339844 76.703125 C 315.339844 76.144531 315.285156 75.589844 315.175781 75.042969 C 315.066406 74.492188 314.90625 73.960938 314.691406 73.441406 C 314.476562 72.925781 314.214844 72.433594 313.90625 71.96875 C 313.59375 71.503906 313.242188 71.074219 312.84375 70.679688 C 312.449219 70.28125 312.019531 69.929688 311.554688 69.617188 C 311.085938 69.308594 310.597656 69.042969 310.078125 68.832031 C 309.5625 68.617188 309.03125 68.453125 308.480469 68.34375 C 307.933594 68.238281 307.378906 68.183594 306.816406 68.183594 Z M 306.816406 68.183594 " fill-opacity="1" fill-rule="nonzero"/><path fill="rgb(10.978699%, 9.799194%, 10.198975%)" d="M 272.726562 68.183594 L 264.203125 68.183594 C 263.644531 68.183594 263.089844 68.238281 262.542969 68.34375 C 261.992188 68.453125 261.460938 68.617188 260.941406 68.832031 C 260.425781 69.042969 259.933594 69.308594 259.46875 69.617188 C 259.003906 69.929688 258.574219 70.28125 258.179688 70.679688 C 257.78125 71.074219 257.429688 71.503906 257.117188 71.96875 C 256.808594 72.433594 256.542969 72.925781 256.332031 73.441406 C 256.117188 73.960938 255.953125 74.492188 255.84375 75.042969 C 255.738281 75.589844 255.683594 76.144531 255.683594 76.703125 C 255.683594 77.265625 255.738281 77.820312 255.84375 78.367188 C 255.953125 78.917969 256.117188 79.449219 256.332031 79.964844 C 256.542969 80.484375 256.808594 80.972656 257.117188 81.441406 C 257.429688 81.90625 257.78125 82.335938 258.179688 82.730469 C 258.574219 83.125 259.003906 83.480469 259.46875 83.789062 C 259.933594 84.101562 260.425781 84.363281 260.941406 84.578125 C 261.460938 84.792969 261.992188 84.953125 262.542969 85.0625 C 263.089844 85.171875 263.644531 85.226562 264.203125 85.226562 L 272.726562 85.226562 C 273.285156 85.226562 273.839844 85.171875 274.390625 85.0625 C 274.9375 84.953125 275.472656 84.792969 275.988281 84.578125 C 276.503906 84.363281 276.996094 84.101562 277.460938 83.789062 C 277.925781 83.480469 278.359375 83.125 278.753906 82.730469 C 279.148438 82.335938 279.503906 81.90625 279.8125 81.441406 C 280.125 80.972656 280.386719 80.484375 280.601562 79.964844 C 280.816406 79.449219 280.976562 78.917969 281.085938 78.367188 C 281.195312 77.820312 281.25 77.265625 281.25 76.703125 C 281.25 76.144531 281.195312 75.589844 281.085938 75.042969 C 280.976562 74.492188 280.816406 73.960938 280.601562 73.441406 C 280.386719 72.925781 280.125 72.433594 279.8125 71.96875 C 279.503906 71.503906 279.148438 71.074219 278.753906 70.679688 C 278.359375 70.28125 277.925781 69.929688 277.460938 69.617188 C 276.996094 69.308594 276.503906 69.042969 275.988281 68.832031 C 275.472656 68.617188 274.9375 68.453125 274.390625 68.34375 C 273.839844 68.238281 273.285156 68.183594 272.726562 68.183594 Z M 272.726562 68.183594 " fill-opacity="1" fill-rule="nonzero"/><path fill="rgb(10.978699%, 9.799194%, 10.198975%)" d="M 238.636719 68.183594 L 230.113281 68.183594 C 229.554688 68.183594 229 68.238281 228.449219 68.34375 C 227.902344 68.453125 227.367188 68.617188 226.851562 68.832031 C 226.335938 69.042969 225.84375 69.308594 225.378906 69.617188 C 224.914062 69.929688 224.484375 70.28125 224.085938 70.679688 C 223.691406 71.074219 223.339844 71.503906 223.027344 71.96875 C 222.714844 72.433594 222.453125 72.925781 222.238281 73.441406 C 222.027344 73.960938 221.863281 74.492188 221.753906 75.042969 C 221.644531 75.589844 221.589844 76.144531 221.589844 76.703125 C 221.589844 77.265625 221.644531 77.820312 221.753906 78.367188 C 221.863281 78.917969 222.027344 79.449219 222.238281 79.964844 C 222.453125 80.484375 222.714844 80.972656 223.027344 81.441406 C 223.339844 81.90625 223.691406 82.335938 224.085938 82.730469 C 224.484375 83.125 224.914062 83.480469 225.378906 83.789062 C 225.84375 84.101562 226.335938 84.363281 226.851562 84.578125 C 227.367188 84.792969 227.902344 84.953125 228.449219 85.0625 C 229 85.171875 229.554688 85.226562 230.113281 85.226562 L 238.636719 85.226562 C 239.195312 85.226562 239.75 85.171875 240.300781 85.0625 C 240.847656 84.953125 241.378906 84.792969 241.898438 84.578125 C 242.414062 84.363281 242.90625 84.101562 243.371094 83.789062 C 243.835938 83.480469 244.265625 83.125 244.664062 82.730469 C 245.058594 82.335938 245.410156 81.90625 245.722656 81.441406 C 246.035156 80.972656 246.296875 80.484375 246.511719 79.964844 C 246.722656 79.449219 246.886719 78.917969 246.996094 78.367188 C 247.105469 77.820312 247.160156 77.265625 247.160156 76.703125 C 247.160156 76.144531 247.105469 75.589844 246.996094 75.042969 C 246.886719 74.492188 246.722656 73.960938 246.511719 73.441406 C 246.296875 72.925781 246.035156 72.433594 245.722656 71.96875 C 245.410156 71.503906 245.058594 71.074219 244.664062 70.679688 C 244.265625 70.28125 243.835938 69.929688 243.371094 69.617188 C 242.90625 69.308594 242.414062 69.042969 241.898438 68.832031 C 241.378906 68.617188 240.847656 68.453125 240.300781 68.34375 C 239.75 68.238281 239.195312 68.183594 238.636719 68.183594 Z M 238.636719 68.183594 " fill-opacity="1" fill-rule="nonzero"/><path fill="rgb(10.978699%, 9.799194%, 10.198975%)" d="M 366.476562 0 L 311.078125 0 C 310.519531 0 309.964844 0.0546875 309.417969 0.164062 C 308.867188 0.273438 308.335938 0.433594 307.816406 0.648438 C 307.300781 0.863281 306.808594 1.125 306.34375 1.4375 C 305.878906 1.746094 305.449219 2.101562 305.054688 2.496094 C 304.65625 2.890625 304.304688 3.324219 303.992188 3.789062 C 303.683594 4.253906 303.417969 4.746094 303.207031 5.261719 C 302.992188 5.777344 302.828125 6.3125 302.71875 6.859375 C 302.613281 7.410156 302.558594 7.964844 302.558594 8.523438 C 302.558594 9.082031 302.53125 9.636719 302.476562 10.195312 C 302.421875 10.75 302.339844 11.300781 302.230469 11.847656 C 302.121094 12.394531 301.984375 12.9375 301.824219 13.472656 C 301.660156 14.003906 301.472656 14.53125 301.257812 15.046875 C 301.046875 15.5625 300.808594 16.066406 300.542969 16.558594 C 300.28125 17.050781 299.996094 17.527344 299.683594 17.992188 C 299.375 18.457031 299.042969 18.90625 298.6875 19.335938 C 298.332031 19.769531 297.960938 20.179688 297.5625 20.574219 C 297.167969 20.96875 296.757812 21.34375 296.324219 21.699219 C 295.894531 22.054688 295.445312 22.386719 294.980469 22.695312 C 294.515625 23.003906 294.039062 23.292969 293.546875 23.554688 C 293.054688 23.820312 292.550781 24.058594 292.035156 24.269531 C 291.519531 24.484375 290.992188 24.671875 290.460938 24.835938 C 289.925781 24.996094 289.382812 25.132812 288.835938 25.242188 C 288.289062 25.347656 287.738281 25.429688 287.183594 25.484375 C 286.625 25.539062 286.070312 25.566406 285.511719 25.566406 C 284.953125 25.566406 284.394531 25.539062 283.839844 25.484375 C 283.285156 25.429688 282.734375 25.347656 282.1875 25.242188 C 281.636719 25.132812 281.097656 24.996094 280.5625 24.835938 C 280.027344 24.671875 279.503906 24.484375 278.988281 24.269531 C 278.472656 24.058594 277.96875 23.820312 277.476562 23.554688 C 276.984375 23.292969 276.503906 23.003906 276.042969 22.695312 C 275.578125 22.386719 275.128906 22.054688 274.699219 21.699219 C 274.265625 21.34375 273.851562 20.96875 273.457031 20.574219 C 273.0625 20.179688 272.6875 19.769531 272.335938 19.335938 C 271.980469 18.90625 271.648438 18.457031 271.339844 17.992188 C 271.027344 17.527344 270.742188 17.050781 270.480469 16.558594 C 270.214844 16.066406 269.976562 15.5625 269.761719 15.046875 C 269.550781 14.53125 269.363281 14.003906 269.199219 13.472656 C 269.039062 12.9375 268.902344 12.394531 268.792969 11.847656 C 268.683594 11.300781 268.601562 10.75 268.546875 10.195312 C 268.492188 9.636719 268.464844 9.082031 268.464844 8.523438 C 268.464844 7.964844 268.410156 7.410156 268.300781 6.859375 C 268.191406 6.3125 268.03125 5.777344 267.816406 5.261719 C 267.601562 4.746094 267.339844 4.253906 267.03125 3.789062 C 266.71875 3.324219 266.367188 2.890625 265.96875 2.496094 C 265.574219 2.101562 265.144531 1.746094 264.679688 1.4375 C 264.210938 1.125 263.722656 0.863281 263.203125 0.648438 C 262.6875 0.433594 262.15625 0.273438 261.605469 0.164062 C 261.058594 0.0546875 260.503906 0 259.941406 0 L 204.546875 0 C 203.984375 0 203.429688 0.0546875 202.882812 0.164062 C 202.332031 0.273438 201.800781 0.433594 201.285156 0.648438 C 200.765625 0.863281 200.277344 1.125 199.808594 1.4375 C 199.34375 1.746094 198.914062 2.101562 198.519531 2.496094 C 198.125 2.890625 197.769531 3.324219 197.460938 3.789062 C 197.148438 4.253906 196.886719 4.746094 196.671875 5.261719 C 196.457031 5.777344 196.296875 6.3125 196.1875 6.859375 C 196.078125 7.410156 196.023438 7.964844 196.023438 8.523438 L 196.023438 366.476562 C 196.023438 367.035156 196.078125 367.589844 196.1875 368.140625 C 196.296875 368.6875 196.457031 369.222656 196.671875 369.738281 C 196.886719 370.253906 197.148438 370.746094 197.460938 371.210938 C 197.769531 371.675781 198.125 372.109375 198.519531 372.503906 C 198.914062 372.898438 199.34375 373.253906 199.808594 373.5625 C 200.277344 373.875 200.765625 374.136719 201.285156 374.351562 C 201.800781 374.566406 202.332031 374.726562 202.882812 374.835938 C 203.429688 374.945312 203.984375 375 204.546875 375 L 259.941406 375 C 260.503906 375 261.058594 374.945312 261.605469 374.835938 C 262.15625 374.726562 262.6875 374.566406 263.203125 374.351562 C 263.722656 374.136719 264.210938 373.875 264.679688 373.5625 C 265.144531 373.253906 265.574219 372.898438 265.96875 372.503906 C 266.367188 372.109375 266.71875 371.675781 267.03125 371.210938 C 267.339844 370.746094 267.601562 370.253906 267.816406 369.738281 C 268.03125 369.222656 268.191406 368.6875 268.300781 368.140625 C 268.410156 367.589844 268.464844 367.035156 268.464844 366.476562 C 268.464844 365.917969 268.492188 365.363281 268.546875 364.804688 C 268.601562 364.25 268.683594 363.699219 268.792969 363.152344 C 268.902344 362.605469 269.039062 362.0625 269.199219 361.527344 C 269.363281 360.996094 269.550781 360.46875 269.761719 359.953125 C 269.976562 359.4375 270.214844 358.933594 270.480469 358.441406 C 270.742188 357.949219 271.027344 357.472656 271.339844 357.007812 C 271.648438 356.542969 271.980469 356.09375 272.335938 355.664062 C 272.6875 355.230469 273.0625 354.820312 273.457031 354.425781 C 273.851562 354.03125 274.265625 353.65625 274.699219 353.300781 C 275.128906 352.945312 275.578125 352.613281 276.042969 352.304688 C 276.503906 351.996094 276.984375 351.707031 277.476562 351.445312 C 277.96875 351.179688 278.472656 350.941406 278.988281 350.730469 C 279.503906 350.515625 280.027344 350.328125 280.5625 350.164062 C 281.097656 350.003906 281.636719 349.867188 282.1875 349.757812 C 282.734375 349.652344 283.285156 349.570312 283.839844 349.515625 C 284.394531 349.460938 284.953125 349.433594 285.511719 349.433594 C 286.070312 349.433594 286.625 349.460938 287.183594 349.515625 C 287.738281 349.570312 288.289062 349.652344 288.835938 349.757812 C 289.382812 349.867188 289.925781 350.003906 290.460938 350.164062 C 290.992188 350.328125 291.519531 350.515625 292.035156 350.730469 C 292.550781 350.941406 293.054688 351.179688 293.546875 351.445312 C 294.039062 351.707031 294.515625 351.996094 294.980469 352.304688 C 295.445312 352.613281 295.894531 352.945312 296.324219 353.300781 C 296.757812 353.65625 297.167969 354.03125 297.5625 354.425781 C 297.960938 354.820312 298.332031 355.230469 298.6875 355.664062 C 299.042969 356.09375 299.375 356.542969 299.683594 357.007812 C 299.996094 357.472656 300.28125 357.949219 300.542969 358.441406 C 300.808594 358.933594 301.046875 359.4375 301.257812 359.953125 C 301.472656 360.46875 301.660156 360.996094 301.824219 361.527344 C 301.984375 362.0625 302.121094 362.605469 302.230469 363.152344 C 302.339844 363.699219 302.421875 364.25 302.476562 364.804688 C 302.53125 365.363281 302.558594 365.917969 302.558594 366.476562 C 302.558594 367.035156 302.613281 367.589844 302.71875 368.140625 C 302.828125 368.6875 302.992188 369.222656 303.207031 369.738281 C 303.417969 370.253906 303.683594 370.746094 303.992188 371.210938 C 304.304688 371.675781 304.65625 372.109375 305.054688 372.503906 C 305.449219 372.898438 305.878906 373.253906 306.34375 373.5625 C 306.808594 373.875 307.300781 374.136719 307.816406 374.351562 C 308.335938 374.566406 308.867188 374.726562 309.417969 374.835938 C 309.964844 374.945312 310.519531 375 311.078125 375 L 366.476562 375 C 367.035156 375 367.589844 374.945312 368.140625 374.835938 C 368.6875 374.726562 369.222656 374.566406 369.738281 374.351562 C 370.253906 374.136719 370.746094 373.875 371.210938 373.5625 C 371.675781 373.253906 372.109375 372.898438 372.503906 372.503906 C 372.898438 372.109375 373.253906 371.675781 373.5625 371.210938 C 373.875 370.746094 374.136719 370.253906 374.351562 369.738281 C 374.566406 369.222656 374.726562 368.6875 374.835938 368.140625 C 374.945312 367.589844 375 367.035156 375 366.476562 L 375 8.523438 C 375 7.964844 374.945312 7.410156 374.835938 6.859375 C 374.726562 6.3125 374.566406 5.777344 374.351562 5.261719 C 374.136719 4.746094 373.875 4.253906 373.5625 3.789062 C 373.253906 3.324219 372.898438 2.890625 372.503906 2.496094 C 372.109375 2.101562 371.675781 1.746094 371.210938 1.4375 C 370.746094 1.125 370.253906 0.863281 369.738281 0.648438 C 369.222656 0.433594 368.6875 0.273438 368.140625 0.164062 C 367.589844 0.0546875 367.035156 0 366.476562 0 Z M 213.066406 149.148438 C 214.277344 148.078125 215.53125 147.070312 216.835938 146.121094 C 218.140625 145.167969 219.484375 144.28125 220.875 143.460938 C 222.261719 142.636719 223.683594 141.882812 225.144531 141.195312 C 226.601562 140.507812 228.089844 139.886719 229.609375 139.339844 C 231.125 138.792969 232.667969 138.320312 234.230469 137.917969 C 235.792969 137.515625 237.371094 137.191406 238.964844 136.9375 C 240.558594 136.6875 242.160156 136.511719 243.769531 136.410156 C 245.378906 136.308594 246.988281 136.285156 248.601562 136.335938 C 250.214844 136.390625 251.820312 136.519531 253.421875 136.722656 C 255.023438 136.925781 256.609375 137.207031 258.183594 137.558594 C 259.757812 137.914062 261.308594 138.34375 262.84375 138.84375 C 264.375 139.34375 265.882812 139.917969 267.363281 140.5625 C 268.839844 141.207031 270.285156 141.917969 271.699219 142.699219 C 273.109375 143.480469 274.480469 144.324219 275.8125 145.234375 C 277.144531 146.144531 278.429688 147.117188 279.671875 148.148438 C 280.910156 149.179688 282.097656 150.269531 283.234375 151.414062 C 284.425781 152.609375 285.554688 153.863281 286.621094 155.171875 C 287.6875 156.476562 288.691406 157.832031 289.625 159.238281 C 290.558594 160.644531 291.421875 162.089844 292.214844 163.578125 C 293.007812 165.070312 293.726562 166.59375 294.371094 168.152344 C 295.011719 169.714844 295.578125 171.300781 296.066406 172.917969 C 296.554688 174.53125 296.964844 176.167969 297.292969 177.824219 C 297.621094 179.476562 297.867188 181.144531 298.03125 182.824219 C 298.195312 184.503906 298.277344 186.1875 298.277344 187.875 C 298.277344 189.5625 298.195312 191.246094 298.03125 192.925781 C 297.867188 194.605469 297.621094 196.273438 297.292969 197.925781 C 296.964844 199.582031 296.554688 201.21875 296.066406 202.832031 C 295.578125 204.449219 295.011719 206.035156 294.371094 207.597656 C 293.726562 209.15625 293.007812 210.679688 292.214844 212.171875 C 291.421875 213.660156 290.558594 215.105469 289.625 216.511719 C 288.691406 217.917969 287.6875 219.273438 286.621094 220.578125 C 285.554688 221.886719 284.425781 223.140625 283.234375 224.335938 L 213.066406 294.722656 Z M 357.953125 357.953125 L 318.527344 357.953125 C 318.058594 356.136719 317.445312 354.371094 316.683594 352.652344 C 315.925781 350.9375 315.027344 349.292969 313.996094 347.726562 C 312.964844 346.15625 311.8125 344.683594 310.539062 343.304688 C 309.261719 341.929688 307.882812 340.664062 306.398438 339.515625 C 304.914062 338.363281 303.347656 337.34375 301.695312 336.453125 C 300.042969 335.5625 298.328125 334.8125 296.550781 334.203125 C 294.773438 333.597656 292.960938 333.140625 291.109375 332.832031 C 289.257812 332.523438 287.394531 332.371094 285.515625 332.371094 C 283.636719 332.371094 281.773438 332.523438 279.921875 332.832031 C 278.070312 333.140625 276.257812 333.597656 274.480469 334.203125 C 272.703125 334.8125 270.988281 335.5625 269.335938 336.453125 C 267.683594 337.34375 266.117188 338.363281 264.632812 339.515625 C 263.148438 340.664062 261.769531 341.929688 260.492188 343.304688 C 259.21875 344.683594 258.066406 346.15625 257.035156 347.726562 C 256.003906 349.292969 255.105469 350.9375 254.347656 352.652344 C 253.585938 354.371094 252.972656 356.136719 252.503906 357.953125 L 213.066406 357.953125 L 213.066406 318.859375 L 295.304688 236.402344 C 296.09375 235.609375 296.867188 234.792969 297.617188 233.960938 C 298.367188 233.128906 299.097656 232.277344 299.808594 231.410156 C 300.515625 230.539062 301.203125 229.652344 301.871094 228.75 C 302.535156 227.847656 303.179688 226.929688 303.800781 225.996094 C 304.421875 225.0625 305.019531 224.113281 305.59375 223.152344 C 306.167969 222.1875 306.71875 221.210938 307.246094 220.222656 C 307.773438 219.230469 308.277344 218.230469 308.753906 217.214844 C 309.230469 216.199219 309.683594 215.175781 310.113281 214.136719 C 310.539062 213.101562 310.941406 212.054688 311.316406 211 C 311.695312 209.941406 312.046875 208.878906 312.371094 207.804688 C 312.695312 206.730469 312.992188 205.648438 313.261719 204.5625 C 313.535156 203.472656 313.78125 202.378906 313.996094 201.277344 C 314.214844 200.179688 314.40625 199.074219 314.570312 197.964844 C 314.734375 196.855469 314.871094 195.742188 314.980469 194.625 C 315.089844 193.511719 315.171875 192.390625 315.226562 191.273438 C 315.28125 190.152344 315.308594 189.03125 315.308594 187.910156 C 315.308594 186.789062 315.28125 185.667969 315.226562 184.546875 C 315.171875 183.425781 315.089844 182.308594 314.980469 181.191406 C 314.871094 180.074219 314.734375 178.964844 314.570312 177.855469 C 314.40625 176.746094 314.214844 175.640625 313.996094 174.539062 C 313.78125 173.4375 313.535156 172.34375 313.261719 171.257812 C 312.992188 170.167969 312.695312 169.089844 312.371094 168.015625 C 312.046875 166.941406 311.695312 165.875 311.316406 164.820312 C 310.941406 163.761719 310.539062 162.714844 310.113281 161.679688 C 309.683594 160.644531 309.230469 159.617188 308.753906 158.601562 C 308.277344 157.589844 307.773438 156.585938 307.246094 155.59375 C 306.71875 154.605469 306.167969 153.628906 305.59375 152.667969 C 305.019531 151.703125 304.421875 150.753906 303.800781 149.820312 C 303.179688 148.886719 302.535156 147.96875 301.871094 147.066406 C 301.203125 146.164062 300.515625 145.277344 299.808594 144.410156 C 299.097656 143.542969 298.367188 142.691406 297.617188 141.855469 C 296.867188 141.023438 296.09375 140.210938 295.304688 139.414062 C 293.992188 138.097656 292.628906 136.832031 291.214844 135.625 C 289.800781 134.417969 288.339844 133.273438 286.832031 132.183594 C 285.320312 131.097656 283.773438 130.074219 282.179688 129.113281 C 280.585938 128.152344 278.957031 127.257812 277.292969 126.433594 C 275.628906 125.605469 273.929688 124.847656 272.203125 124.160156 C 270.476562 123.46875 268.722656 122.855469 266.945312 122.308594 C 265.167969 121.761719 263.371094 121.292969 261.554688 120.894531 C 259.738281 120.496094 257.910156 120.171875 256.066406 119.925781 C 254.222656 119.675781 252.371094 119.503906 250.515625 119.40625 C 248.660156 119.308594 246.800781 119.289062 244.941406 119.34375 C 243.082031 119.398438 241.230469 119.53125 239.382812 119.738281 C 237.535156 119.945312 235.699219 120.226562 233.871094 120.582031 C 232.046875 120.9375 230.242188 121.371094 228.449219 121.875 C 226.660156 122.378906 224.894531 122.957031 223.152344 123.605469 C 221.410156 124.253906 219.699219 124.976562 218.015625 125.765625 C 216.332031 126.554688 214.683594 127.410156 213.066406 128.335938 L 213.066406 17.046875 L 252.496094 17.046875 C 252.960938 18.863281 253.578125 20.628906 254.335938 22.347656 C 255.097656 24.0625 255.992188 25.707031 257.027344 27.273438 C 258.058594 28.84375 259.210938 30.316406 260.484375 31.695312 C 261.761719 33.070312 263.140625 34.335938 264.625 35.484375 C 266.109375 36.636719 267.675781 37.65625 269.328125 38.546875 C 270.980469 39.4375 272.695312 40.1875 274.472656 40.796875 C 276.246094 41.402344 278.0625 41.859375 279.914062 42.167969 C 281.765625 42.476562 283.628906 42.628906 285.507812 42.628906 C 287.382812 42.628906 289.25 42.476562 291.101562 42.167969 C 292.953125 41.859375 294.765625 41.402344 296.542969 40.796875 C 298.320312 40.1875 300.035156 39.4375 301.6875 38.546875 C 303.339844 37.65625 304.90625 36.636719 306.390625 35.484375 C 307.875 34.335938 309.253906 33.070312 310.527344 31.695312 C 311.804688 30.316406 312.957031 28.84375 313.988281 27.273438 C 315.019531 25.707031 315.917969 24.0625 316.675781 22.347656 C 317.4375 20.628906 318.050781 18.863281 318.519531 17.046875 L 357.953125 17.046875 Z M 357.953125 357.953125 " fill-opacity="1" fill-rule="nonzero"/></svg>